<svg xmlns="http://www.w3.org/2000/svg" width="600" height="369.55">
  <!-- Source https://www.twitch.tv/p/brand/ -->
  <path fill="#6441a4" fill-rule="evenodd" d="M373.7 0l-8.3 26.99.18 124.57h30.96v16.6h16.6l16.62-16.6h29.06l53.98-53.98V0zm124.57 89.27l-22.84 22.84h-37.37l-20.76 20.76v-20.76h-31.14V14.53h112.11zM460.9 41.52h14.53v41.52H460.9zm-37.37 0h14.53v41.52h-14.53zM600 234.6v97.58l-53.98 37.37H512.8v-16.6l-24.91 16.6h-29.07v-16.6l-18.68 16.6h-53.98l-16.61-16.6-4.15 16.6-47.65-.12-18.79-16.49-2.07 16.61-53.98-.12-2.08-16.49-14.53 16.49-83.05.12-16.6-8.3v8.3H80.96l-49.83-31.14L0 307.27V170.24h64.36l31.14 31.14h141.18v-31.14h116.26v31.14h29.07V218l16.6-16.6h35.3l31.14-31.15h66.44v31.14h35.3zM80.97 215.92H51.9v-31.14H14.53v116.26l22.84 24.91h43.6v-39.44H51.9v-33.22h29.07zm155.7 0h-37.36v70.59h-14.53v-70.6h-35.3v70.6h-14.53v-70.6H95.5v110.04h116.26l24.92-24.91zm49.84 0h-35.3v110.03h35.3zm0-31.14h-35.3v16.6h35.3zm80.96 31.14h-29.06v-31.14h-37.37v116.26l22.84 24.91h43.6v-39.44H338.4v-33.22h29.06zm95.5 0h-58.13l-22.83 22.83v62.29l24.91 24.91h56.06v-39.44h-41.53v-33.22h41.53zm122.5 22.83l-24.92-22.83h-43.6v-31.14h-39.44v141.17h39.45V253.3h29.06v72.66h39.45z"/>
</svg>
